<?xml version="1.0" standalone="no"?>
<!DOCTYPE svg PUBLIC "-//W3C//DTD SVG 20010904//EN"
 "http://www.w3.org/TR/2001/REC-SVG-20010904/DTD/svg10.dtd">
<svg version="1.0" xmlns="http://www.w3.org/2000/svg"
 width="16.000000pt" height="16.000000pt" viewBox="0 0 16.000000 16.000000"
 preserveAspectRatio="xMidYMid meet">
<metadata>
Created by potrace 1.11, written by Peter Selinger 2001-2013
</metadata>
<g transform="translate(0.000000,16.000000) scale(0.003604,-0.003604)"
fill="#000000" stroke="none">
<path d="M911 3966 c-53 -29 -50 63 -51 -1719 0 -1803 -3 -1699 55 -1725 37
-17 903 -17 940 0 58 26 55 -78 55 1723 0 1801 3 1697 -55 1723 -39 18 -911
16 -944 -2z m554 -2045 c193 -88 168 -347 -38 -403 -129 -34 -277 106 -252
239 25 137 170 219 290 164z m-26 -681 c179 -51 214 -282 58 -384 -163 -105
-375 58 -313 241 39 113 147 174 255 143z"/>
<path d="M2250 2245 c0 -1274 3 -1596 13 -1592 6 2 86 28 177 57 91 28 244 78
340 110 96 31 315 103 486 159 321 105 340 114 363 174 8 19 11 363 11 1092 0
729 -3 1073 -11 1092 -23 60 -42 70 -363 174 -171 56 -390 128 -486 159 -96
32 -249 82 -340 110 -91 29 -171 55 -177 57 -10 4 -13 -318 -13 -1592z"/>
</g>
</svg>
